<?xml version="1.0" encoding="UTF-8" standalone="no"?>
<!DOCTYPE svg PUBLIC "-//W3C//DTD SVG 1.1//EN"
 "http://www.w3.org/Graphics/SVG/1.1/DTD/svg11.dtd">
<!-- Generated by graphviz version 2.43.0 (0)
 -->
<!-- Title: %3 Pages: 1 -->
<svg width="893pt" height="1167pt"
 viewBox="0.00 0.00 892.50 1167.00" xmlns="http://www.w3.org/2000/svg" xmlns:xlink="http://www.w3.org/1999/xlink">
<g id="graph0" class="graph" transform="scale(1 1) rotate(0) translate(4 1163)">
<title>%3</title>
<polygon fill="white" stroke="transparent" points="-4,4 -4,-1163 888.5,-1163 888.5,4 -4,4"/>
<!-- ATF -->
<g id="node1" class="node">
<title>ATF</title>
<polygon fill="none" stroke="black" points="78,-1060 78,-1151 179,-1151 179,-1060 78,-1060"/>
<text text-anchor="middle" x="128.5" y="-1135.8" font-family="Times,serif" font-size="14.00">ATF</text>
<polyline fill="none" stroke="black" points="78,-1128 179,-1128 "/>
<text text-anchor="start" x="86" y="-1112.8" font-family="Times,serif" font-size="14.00">fileVersion</text>
<text text-anchor="start" x="86" y="-1097.8" font-family="Times,serif" font-size="14.00">amgVersion</text>
<text text-anchor="start" x="86" y="-1082.8" font-family="Times,serif" font-size="14.00">author</text>
<text text-anchor="start" x="86" y="-1067.8" font-family="Times,serif" font-size="14.00">language</text>
</g>
<!-- LearningWorld -->
<g id="node2" class="node">
<title>LearningWorld</title>
<polygon fill="none" stroke="black" points="197.5,-1052.5 197.5,-1158.5 337.5,-1158.5 337.5,-1052.5 197.5,-1052.5"/>
<text text-anchor="middle" x="267.5" y="-1143.3" font-family="Times,serif" font-size="14.00">LearningWorld</text>
<polyline fill="none" stroke="black" points="197.5,-1135.5 337.5,-1135.5 "/>
<text text-anchor="start" x="205.5" y="-1120.3" font-family="Times,serif" font-size="14.00">worldName</text>
<text text-anchor="start" x="205.5" y="-1105.3" font-family="Times,serif" font-size="14.00">worldDescription</text>
<text text-anchor="start" x="205.5" y="-1090.3" font-family="Times,serif" font-size="14.00">worldGoals</text>
<text text-anchor="start" x="205.5" y="-1075.3" font-family="Times,serif" font-size="14.00">evaluationLink</text>
<text text-anchor="start" x="205.5" y="-1060.3" font-family="Times,serif" font-size="14.00">theme</text>
</g>
<!-- FrameStory -->
<g id="node3" class="node">
<title>FrameStory</title>
<polygon fill="none" stroke="black" points="0,-893.5 0,-954.5 139,-954.5 139,-893.5 0,-893.5"/>
<text text-anchor="middle" x="69.5" y="-939.3" font-family="Times,serif" font-size="14.00">FrameStory</text>
<polyline fill="none" stroke="black" points="0,-931.5 139,-931.5 "/>
<text text-anchor="start" x="8" y="-916.3" font-family="Times,serif" font-size="14.00">frameStoryIntro</text>
<text text-anchor="start" x="8" y="-901.3" font-family="Times,serif" font-size="14.00">frameStoryOutro</text>
</g>
<!-- LearningWorld&#45;&gt;FrameStory -->
<g id="edge1" class="edge">
<title>LearningWorld&#45;&gt;FrameStory</title>
<path fill="none" stroke="black" d="M197.29,-1055.46C180.76,-1042.9 163.57,-1028.97 148.5,-1015 131.21,-998.97 113.73,-979.47 99.62,-962.73"/>
<polygon fill="black" stroke="black" points="102.07,-960.2 92.98,-954.76 96.69,-964.68 102.07,-960.2"/>
</g>
<!-- LearningTopic -->
<g id="node4" class="node">
<title>LearningTopic</title>
<polygon fill="none" stroke="black" points="157.5,-886 157.5,-962 275.5,-962 275.5,-886 157.5,-886"/>
<text text-anchor="middle" x="216.5" y="-946.8" font-family="Times,serif" font-size="14.00">LearningTopic</text>
<polyline fill="none" stroke="black" points="157.5,-939 275.5,-939 "/>
<text text-anchor="start" x="165.5" y="-923.8" font-family="Times,serif" font-size="14.00">topicId</text>
<text text-anchor="start" x="165.5" y="-908.8" font-family="Times,serif" font-size="14.00">topicName</text>
<text text-anchor="start" x="165.5" y="-893.8" font-family="Times,serif" font-size="14.00">topicContents</text>
</g>
<!-- LearningWorld&#45;&gt;LearningTopic -->
<g id="edge2" class="edge">
<title>LearningWorld&#45;&gt;LearningTopic</title>
<path fill="none" stroke="black" d="M252.61,-1052.1C245.4,-1026.72 236.82,-996.5 229.82,-971.89"/>
<polygon fill="black" stroke="black" points="233.13,-970.73 227.03,-962.07 226.4,-972.65 233.13,-970.73"/>
</g>
<!-- LearningSpace -->
<g id="node5" class="node">
<title>LearningSpace</title>
<polygon fill="none" stroke="black" points="294,-833.5 294,-1014.5 501,-1014.5 501,-833.5 294,-833.5"/>
<text text-anchor="middle" x="397.5" y="-999.3" font-family="Times,serif" font-size="14.00">LearningSpace</text>
<polyline fill="none" stroke="black" points="294,-991.5 501,-991.5 "/>
<text text-anchor="start" x="302" y="-976.3" font-family="Times,serif" font-size="14.00">spaceId</text>
<text text-anchor="start" x="302" y="-961.3" font-family="Times,serif" font-size="14.00">spaceUuid</text>
<text text-anchor="start" x="302" y="-946.3" font-family="Times,serif" font-size="14.00">spaceName</text>
<text text-anchor="start" x="302" y="-931.3" font-family="Times,serif" font-size="14.00">spaceDescription</text>
<text text-anchor="start" x="302" y="-916.3" font-family="Times,serif" font-size="14.00">spaceGoals</text>
<text text-anchor="start" x="302" y="-901.3" font-family="Times,serif" font-size="14.00">spaceSlotContents</text>
<text text-anchor="start" x="302" y="-886.3" font-family="Times,serif" font-size="14.00">requiredPointsToComplete</text>
<text text-anchor="start" x="302" y="-871.3" font-family="Times,serif" font-size="14.00">requiredSpacesToEnter</text>
<text text-anchor="start" x="302" y="-856.3" font-family="Times,serif" font-size="14.00">spaceTemplate</text>
<text text-anchor="start" x="302" y="-841.3" font-family="Times,serif" font-size="14.00">spaceTemplateStyle</text>
</g>
<!-- LearningWorld&#45;&gt;LearningSpace -->
<g id="edge3" class="edge">
<title>LearningWorld&#45;&gt;LearningSpace</title>
<path fill="none" stroke="black" d="M305.45,-1052.1C312.19,-1042.79 319.41,-1032.83 326.72,-1022.73"/>
<polygon fill="black" stroke="black" points="329.57,-1024.77 332.6,-1014.62 323.9,-1020.66 329.57,-1024.77"/>
</g>
<!-- LearningElement -->
<g id="node8" class="node">
<title>LearningElement</title>
<polygon fill="none" stroke="black" points="519,-841 519,-1007 676,-1007 676,-841 519,-841"/>
<text text-anchor="middle" x="597.5" y="-991.8" font-family="Times,serif" font-size="14.00">LearningElement</text>
<polyline fill="none" stroke="black" points="519,-984 676,-984 "/>
<text text-anchor="start" x="527" y="-968.8" font-family="Times,serif" font-size="14.00">elementId</text>
<text text-anchor="start" x="527" y="-953.8" font-family="Times,serif" font-size="14.00">elementUuid</text>
<text text-anchor="start" x="527" y="-938.8" font-family="Times,serif" font-size="14.00">elementName</text>
<text text-anchor="start" x="527" y="-923.8" font-family="Times,serif" font-size="14.00">elementDescription</text>
<text text-anchor="start" x="527" y="-908.8" font-family="Times,serif" font-size="14.00">elementGoals</text>
<text text-anchor="start" x="527" y="-893.8" font-family="Times,serif" font-size="14.00">elementCategory</text>
<text text-anchor="start" x="527" y="-878.8" font-family="Times,serif" font-size="14.00">elementFileType</text>
<text text-anchor="start" x="527" y="-863.8" font-family="Times,serif" font-size="14.00">elementMaxScore</text>
<text text-anchor="start" x="527" y="-848.8" font-family="Times,serif" font-size="14.00">elementModel</text>
</g>
<!-- LearningWorld&#45;&gt;LearningElement -->
<g id="edge4" class="edge">
<title>LearningWorld&#45;&gt;LearningElement</title>
<path fill="none" stroke="black" d="M337.86,-1055.99C340.74,-1054.57 343.62,-1053.23 346.5,-1052 414.78,-1022.74 444.66,-1051.26 509.5,-1015 510.84,-1014.25 512.17,-1013.47 513.5,-1012.67"/>
<polygon fill="black" stroke="black" points="515.66,-1015.44 522.13,-1007.05 511.84,-1009.58 515.66,-1015.44"/>
</g>
<!-- SimpleSpaceStory -->
<g id="node6" class="node">
<title>SimpleSpaceStory</title>
<polygon fill="none" stroke="black" points="323.5,-675 323.5,-722 471.5,-722 471.5,-675 323.5,-675"/>
<text text-anchor="middle" x="397.5" y="-706.8" font-family="Times,serif" font-size="14.00">SimpleSpaceStory</text>
<polyline fill="none" stroke="black" points="323.5,-699 471.5,-699 "/>
</g>
<!-- LearningSpace&#45;&gt;SimpleSpaceStory -->
<g id="edge5" class="edge">
<title>LearningSpace&#45;&gt;SimpleSpaceStory</title>
<path fill="none" stroke="black" d="M397.5,-833.38C397.5,-797.73 397.5,-758.95 397.5,-732.35"/>
<polygon fill="black" stroke="black" points="401,-732.09 397.5,-722.09 394,-732.09 401,-732.09"/>
</g>
<!-- SimpleSpaceStoryElement -->
<g id="node7" class="node">
<title>SimpleSpaceStoryElement</title>
<polygon fill="none" stroke="black" points="293.5,-486.5 293.5,-577.5 501.5,-577.5 501.5,-486.5 293.5,-486.5"/>
<text text-anchor="middle" x="397.5" y="-562.3" font-family="Times,serif" font-size="14.00">SimpleSpaceStoryElement</text>
<polyline fill="none" stroke="black" points="293.5,-554.5 501.5,-554.5 "/>
<text text-anchor="start" x="301.5" y="-539.3" font-family="Times,serif" font-size="14.00">storyTexts</text>
<text text-anchor="start" x="301.5" y="-524.3" font-family="Times,serif" font-size="14.00">elementModel</text>
<text text-anchor="start" x="301.5" y="-509.3" font-family="Times,serif" font-size="14.00">modelFacialExpression</text>
<text text-anchor="start" x="301.5" y="-494.3" font-family="Times,serif" font-size="14.00">storyNpcName</text>
</g>
<!-- SimpleSpaceStory&#45;&gt;SimpleSpaceStoryElement -->
<g id="edge6" class="edge">
<title>SimpleSpaceStory&#45;&gt;SimpleSpaceStoryElement</title>
<path fill="none" stroke="black" d="M397.5,-674.97C397.5,-652.62 397.5,-617.49 397.5,-587.78"/>
<polygon fill="black" stroke="black" points="401,-587.52 397.5,-577.52 394,-587.52 401,-587.52"/>
</g>
<!-- AdaptivityElement -->
<g id="node9" class="node">
<title>AdaptivityElement</title>
<polygon fill="none" stroke="black" points="519,-615.5 519,-781.5 676,-781.5 676,-615.5 519,-615.5"/>
<text text-anchor="middle" x="597.5" y="-766.3" font-family="Times,serif" font-size="14.00">AdaptivityElement</text>
<polyline fill="none" stroke="black" points="519,-758.5 676,-758.5 "/>
<text text-anchor="start" x="527" y="-743.3" font-family="Times,serif" font-size="14.00">elementId</text>
<text text-anchor="start" x="527" y="-728.3" font-family="Times,serif" font-size="14.00">elementUuid</text>
<text text-anchor="start" x="527" y="-713.3" font-family="Times,serif" font-size="14.00">elementName</text>
<text text-anchor="start" x="527" y="-698.3" font-family="Times,serif" font-size="14.00">elementDescription</text>
<text text-anchor="start" x="527" y="-683.3" font-family="Times,serif" font-size="14.00">elementGoals</text>
<text text-anchor="start" x="527" y="-668.3" font-family="Times,serif" font-size="14.00">elementCategory</text>
<text text-anchor="start" x="527" y="-653.3" font-family="Times,serif" font-size="14.00">elementFileType</text>
<text text-anchor="start" x="527" y="-638.3" font-family="Times,serif" font-size="14.00">elementMaxScore</text>
<text text-anchor="start" x="527" y="-623.3" font-family="Times,serif" font-size="14.00">elementModel</text>
</g>
<!-- LearningElement&#45;&gt;AdaptivityElement -->
<g id="edge15" class="edge">
<title>LearningElement&#45;&gt;AdaptivityElement</title>
<path fill="none" stroke="black" stroke-dasharray="5,2" d="M597.5,-840.73C597.5,-824.75 597.5,-807.91 597.5,-791.64"/>
<polygon fill="none" stroke="black" points="601,-791.6 597.5,-781.6 594,-791.6 601,-791.6"/>
<text text-anchor="middle" x="625.5" y="-803.8" font-family="Times,serif" font-size="14.00">inherits</text>
</g>
<!-- adaptivityContent -->
<g id="node10" class="node">
<title>adaptivityContent</title>
<polygon fill="none" stroke="black" points="524.5,-509 524.5,-555 670.5,-555 670.5,-509 524.5,-509"/>
<text text-anchor="middle" x="597.5" y="-539.8" font-family="Times,serif" font-size="14.00">adaptivityContent</text>
<polyline fill="none" stroke="black" points="524.5,-532 670.5,-532 "/>
<text text-anchor="start" x="532.5" y="-516.8" font-family="Times,serif" font-size="14.00">introText</text>
</g>
<!-- AdaptivityElement&#45;&gt;adaptivityContent -->
<g id="edge7" class="edge">
<title>AdaptivityElement&#45;&gt;adaptivityContent</title>
<path fill="none" stroke="black" d="M597.5,-615.25C597.5,-597.58 597.5,-579.92 597.5,-565.51"/>
<polygon fill="black" stroke="black" points="601,-565.19 597.5,-555.19 594,-565.19 601,-565.19"/>
</g>
<!-- adaptivityTask -->
<g id="node11" class="node">
<title>adaptivityTask</title>
<polygon fill="none" stroke="black" points="490,-342.5 490,-448.5 705,-448.5 705,-342.5 490,-342.5"/>
<text text-anchor="middle" x="597.5" y="-433.3" font-family="Times,serif" font-size="14.00">adaptivityTask</text>
<polyline fill="none" stroke="black" points="490,-425.5 705,-425.5 "/>
<text text-anchor="start" x="498" y="-410.3" font-family="Times,serif" font-size="14.00">taskId</text>
<text text-anchor="start" x="498" y="-395.3" font-family="Times,serif" font-size="14.00">taskUuid</text>
<text text-anchor="start" x="498" y="-380.3" font-family="Times,serif" font-size="14.00">taskName</text>
<text text-anchor="start" x="498" y="-365.3" font-family="Times,serif" font-size="14.00">optional</text>
<text text-anchor="start" x="498" y="-350.3" font-family="Times,serif" font-size="14.00">minimumRequiredDifficulty</text>
</g>
<!-- adaptivityContent&#45;&gt;adaptivityTask -->
<g id="edge8" class="edge">
<title>adaptivityContent&#45;&gt;adaptivityTask</title>
<path fill="none" stroke="black" d="M597.5,-508.79C597.5,-495.13 597.5,-476.88 597.5,-459.08"/>
<polygon fill="black" stroke="black" points="601,-458.68 597.5,-448.68 594,-458.68 601,-458.68"/>
</g>
<!-- adaptivityQuestion -->
<g id="node12" class="node">
<title>adaptivityQuestion</title>
<polygon fill="none" stroke="black" points="521.5,-198.5 521.5,-304.5 673.5,-304.5 673.5,-198.5 521.5,-198.5"/>
<text text-anchor="middle" x="597.5" y="-289.3" font-family="Times,serif" font-size="14.00">adaptivityQuestion</text>
<polyline fill="none" stroke="black" points="521.5,-281.5 673.5,-281.5 "/>
<text text-anchor="start" x="529.5" y="-266.3" font-family="Times,serif" font-size="14.00">questionType</text>
<text text-anchor="start" x="529.5" y="-251.3" font-family="Times,serif" font-size="14.00">questionId</text>
<text text-anchor="start" x="529.5" y="-236.3" font-family="Times,serif" font-size="14.00">questionUuid</text>
<text text-anchor="start" x="529.5" y="-221.3" font-family="Times,serif" font-size="14.00">questionDifficulty</text>
<text text-anchor="start" x="529.5" y="-206.3" font-family="Times,serif" font-size="14.00">questionText</text>
</g>
<!-- adaptivityTask&#45;&gt;adaptivityQuestion -->
<g id="edge9" class="edge">
<title>adaptivityTask&#45;&gt;adaptivityQuestion</title>
<path fill="none" stroke="black" d="M597.5,-342.43C597.5,-333.46 597.5,-324.05 597.5,-314.84"/>
<polygon fill="black" stroke="black" points="601,-314.56 597.5,-304.56 594,-314.56 601,-314.56"/>
</g>
<!-- correctnessTrigger -->
<g id="node13" class="node">
<title>correctnessTrigger</title>
<polygon fill="none" stroke="black" points="422,-99.5 422,-160.5 575,-160.5 575,-99.5 422,-99.5"/>
<text text-anchor="middle" x="498.5" y="-145.3" font-family="Times,serif" font-size="14.00">correctnessTrigger</text>
<polyline fill="none" stroke="black" points="422,-137.5 575,-137.5 "/>
<text text-anchor="start" x="430" y="-122.3" font-family="Times,serif" font-size="14.00">triggerId</text>
<text text-anchor="start" x="430" y="-107.3" font-family="Times,serif" font-size="14.00">triggerCondition</text>
</g>
<!-- adaptivityQuestion&#45;&gt;correctnessTrigger -->
<g id="edge10" class="edge">
<title>adaptivityQuestion&#45;&gt;correctnessTrigger</title>
<path fill="none" stroke="black" d="M554.37,-198.43C545.98,-188.31 537.35,-177.89 529.45,-168.36"/>
<polygon fill="black" stroke="black" points="532.08,-166.05 523.01,-160.58 526.69,-170.52 532.08,-166.05"/>
</g>
<!-- AdaptivityQuestionAnswer -->
<g id="node17" class="node">
<title>AdaptivityQuestionAnswer</title>
<polygon fill="none" stroke="black" points="593,-107 593,-153 800,-153 800,-107 593,-107"/>
<text text-anchor="middle" x="696.5" y="-137.8" font-family="Times,serif" font-size="14.00">AdaptivityQuestionAnswer</text>
<polyline fill="none" stroke="black" points="593,-130 800,-130 "/>
<text text-anchor="start" x="601" y="-114.8" font-family="Times,serif" font-size="14.00">answerText</text>
</g>
<!-- adaptivityQuestion&#45;&gt;AdaptivityQuestionAnswer -->
<g id="edge14" class="edge">
<title>adaptivityQuestion&#45;&gt;AdaptivityQuestionAnswer</title>
<path fill="none" stroke="black" d="M640.63,-198.43C651.2,-185.68 662.16,-172.45 671.54,-161.12"/>
<polygon fill="black" stroke="black" points="674.39,-163.18 678.07,-153.25 669,-158.71 674.39,-163.18"/>
</g>
<!-- CommentAction -->
<g id="node14" class="node">
<title>CommentAction</title>
<polygon fill="none" stroke="black" points="246,-8 246,-54 377,-54 377,-8 246,-8"/>
<text text-anchor="middle" x="311.5" y="-38.8" font-family="Times,serif" font-size="14.00">CommentAction</text>
<polyline fill="none" stroke="black" points="246,-31 377,-31 "/>
<text text-anchor="start" x="254" y="-15.8" font-family="Times,serif" font-size="14.00">commentText</text>
</g>
<!-- correctnessTrigger&#45;&gt;CommentAction -->
<g id="edge11" class="edge">
<title>correctnessTrigger&#45;&gt;CommentAction</title>
<path fill="none" stroke="black" d="M441.38,-99.37C416.42,-86.43 387.38,-71.36 363.09,-58.76"/>
<polygon fill="black" stroke="black" points="364.52,-55.56 354.03,-54.06 361.29,-61.77 364.52,-55.56"/>
</g>
<!-- AdaptivityReferenceAction -->
<g id="node15" class="node">
<title>AdaptivityReferenceAction</title>
<polygon fill="none" stroke="black" points="395,-0.5 395,-61.5 602,-61.5 602,-0.5 395,-0.5"/>
<text text-anchor="middle" x="498.5" y="-46.3" font-family="Times,serif" font-size="14.00">AdaptivityReferenceAction</text>
<polyline fill="none" stroke="black" points="395,-38.5 602,-38.5 "/>
<text text-anchor="start" x="403" y="-23.3" font-family="Times,serif" font-size="14.00">ElementId</text>
<text text-anchor="start" x="403" y="-8.3" font-family="Times,serif" font-size="14.00">hintText</text>
</g>
<!-- correctnessTrigger&#45;&gt;AdaptivityReferenceAction -->
<g id="edge12" class="edge">
<title>correctnessTrigger&#45;&gt;AdaptivityReferenceAction</title>
<path fill="none" stroke="black" d="M498.5,-99.37C498.5,-90.71 498.5,-81.09 498.5,-71.9"/>
<polygon fill="black" stroke="black" points="502,-71.78 498.5,-61.78 495,-71.78 502,-71.78"/>
</g>
<!-- AdaptivityContentReferenceAction -->
<g id="node16" class="node">
<title>AdaptivityContentReferenceAction</title>
<polygon fill="none" stroke="black" points="620.5,-0.5 620.5,-61.5 884.5,-61.5 884.5,-0.5 620.5,-0.5"/>
<text text-anchor="middle" x="752.5" y="-46.3" font-family="Times,serif" font-size="14.00">AdaptivityContentReferenceAction</text>
<polyline fill="none" stroke="black" points="620.5,-38.5 884.5,-38.5 "/>
<text text-anchor="start" x="628.5" y="-23.3" font-family="Times,serif" font-size="14.00">ElementId</text>
<text text-anchor="start" x="628.5" y="-8.3" font-family="Times,serif" font-size="14.00">hintText</text>
</g>
<!-- correctnessTrigger&#45;&gt;AdaptivityContentReferenceAction -->
<g id="edge13" class="edge">
<title>correctnessTrigger&#45;&gt;AdaptivityContentReferenceAction</title>
<path fill="none" stroke="black" d="M575.05,-99.77C603.65,-88.84 636.33,-76.36 665.79,-65.11"/>
<polygon fill="black" stroke="black" points="667.13,-68.35 675.23,-61.51 664.64,-61.81 667.13,-68.35"/>
</g>
<!-- BaseLearningElement -->
<g id="node18" class="node">
<title>BaseLearningElement</title>
<polygon fill="none" stroke="black" points="356,-1052.5 356,-1158.5 531,-1158.5 531,-1052.5 356,-1052.5"/>
<text text-anchor="middle" x="443.5" y="-1143.3" font-family="Times,serif" font-size="14.00">BaseLearningElement</text>
<polyline fill="none" stroke="black" points="356,-1135.5 531,-1135.5 "/>
<text text-anchor="start" x="364" y="-1120.3" font-family="Times,serif" font-size="14.00">elementId</text>
<text text-anchor="start" x="364" y="-1105.3" font-family="Times,serif" font-size="14.00">elementUuid</text>
<text text-anchor="start" x="364" y="-1090.3" font-family="Times,serif" font-size="14.00">elementName</text>
<text text-anchor="start" x="364" y="-1075.3" font-family="Times,serif" font-size="14.00">elementCategory</text>
<text text-anchor="start" x="364" y="-1060.3" font-family="Times,serif" font-size="14.00">elementFileType</text>
</g>
</g>
</svg>
