<?xml version="1.0" encoding="UTF-8" standalone="no"?>
<!DOCTYPE svg PUBLIC "-//W3C//DTD SVG 1.1//EN"
 "http://www.w3.org/Graphics/SVG/1.1/DTD/svg11.dtd">
<!-- Generated by graphviz version 2.43.0 (0)
 -->
<!-- Title: %3 Pages: 1 -->
<svg width="893pt" height="1146pt"
 viewBox="0.00 0.00 892.50 1146.00" xmlns="http://www.w3.org/2000/svg" xmlns:xlink="http://www.w3.org/1999/xlink">
<g id="graph0" class="graph" transform="scale(1 1) rotate(0) translate(4 1142)">
<title>%3</title>
<polygon fill="white" stroke="transparent" points="-4,4 -4,-1142 888.5,-1142 888.5,4 -4,4"/>
<!-- ATF -->
<g id="node1" class="node">
<title>ATF</title>
<polygon fill="none" stroke="black" points="117,-1039 117,-1130 218,-1130 218,-1039 117,-1039"/>
<text text-anchor="middle" x="167.5" y="-1114.8" font-family="Times,serif" font-size="14.00">ATF</text>
<polyline fill="none" stroke="black" points="117,-1107 218,-1107 "/>
<text text-anchor="start" x="125" y="-1091.8" font-family="Times,serif" font-size="14.00">fileVersion</text>
<text text-anchor="start" x="125" y="-1076.8" font-family="Times,serif" font-size="14.00">amgVersion</text>
<text text-anchor="start" x="125" y="-1061.8" font-family="Times,serif" font-size="14.00">author</text>
<text text-anchor="start" x="125" y="-1046.8" font-family="Times,serif" font-size="14.00">language</text>
</g>
<!-- LearningWorld -->
<g id="node2" class="node">
<title>LearningWorld</title>
<polygon fill="none" stroke="black" points="236.5,-1031.5 236.5,-1137.5 376.5,-1137.5 376.5,-1031.5 236.5,-1031.5"/>
<text text-anchor="middle" x="306.5" y="-1122.3" font-family="Times,serif" font-size="14.00">LearningWorld</text>
<polyline fill="none" stroke="black" points="236.5,-1114.5 376.5,-1114.5 "/>
<text text-anchor="start" x="244.5" y="-1099.3" font-family="Times,serif" font-size="14.00">worldName</text>
<text text-anchor="start" x="244.5" y="-1084.3" font-family="Times,serif" font-size="14.00">worldDescription</text>
<text text-anchor="start" x="244.5" y="-1069.3" font-family="Times,serif" font-size="14.00">worldGoals</text>
<text text-anchor="start" x="244.5" y="-1054.3" font-family="Times,serif" font-size="14.00">evaluationLink</text>
<text text-anchor="start" x="244.5" y="-1039.3" font-family="Times,serif" font-size="14.00">theme</text>
</g>
<!-- FrameStory -->
<g id="node3" class="node">
<title>FrameStory</title>
<polygon fill="none" stroke="black" points="0,-873.5 0,-934.5 139,-934.5 139,-873.5 0,-873.5"/>
<text text-anchor="middle" x="69.5" y="-919.3" font-family="Times,serif" font-size="14.00">FrameStory</text>
<polyline fill="none" stroke="black" points="0,-911.5 139,-911.5 "/>
<text text-anchor="start" x="8" y="-896.3" font-family="Times,serif" font-size="14.00">frameStoryIntro</text>
<text text-anchor="start" x="8" y="-881.3" font-family="Times,serif" font-size="14.00">frameStoryOutro</text>
</g>
<!-- LearningWorld&#45;&gt;FrameStory -->
<g id="edge1" class="edge">
<title>LearningWorld&#45;&gt;FrameStory</title>
<path fill="none" stroke="black" d="M236.18,-1036.54C232.93,-1034.63 229.7,-1032.77 226.5,-1031 193.11,-1012.47 179.09,-1017.84 148.5,-995 129.03,-980.46 110.87,-960.44 96.89,-942.97"/>
<polygon fill="black" stroke="black" points="99.28,-940.36 90.37,-934.64 93.77,-944.67 99.28,-940.36"/>
</g>
<!-- LearningTopic -->
<g id="node4" class="node">
<title>LearningTopic</title>
<polygon fill="none" stroke="black" points="157.5,-866 157.5,-942 275.5,-942 275.5,-866 157.5,-866"/>
<text text-anchor="middle" x="216.5" y="-926.8" font-family="Times,serif" font-size="14.00">LearningTopic</text>
<polyline fill="none" stroke="black" points="157.5,-919 275.5,-919 "/>
<text text-anchor="start" x="165.5" y="-903.8" font-family="Times,serif" font-size="14.00">topicId</text>
<text text-anchor="start" x="165.5" y="-888.8" font-family="Times,serif" font-size="14.00">topicName</text>
<text text-anchor="start" x="165.5" y="-873.8" font-family="Times,serif" font-size="14.00">topicContents</text>
</g>
<!-- LearningWorld&#45;&gt;LearningTopic -->
<g id="edge2" class="edge">
<title>LearningWorld&#45;&gt;LearningTopic</title>
<path fill="none" stroke="black" d="M280.23,-1031.39C267.44,-1006.02 252.19,-975.79 239.82,-951.25"/>
<polygon fill="black" stroke="black" points="242.85,-949.5 235.23,-942.14 236.6,-952.65 242.85,-949.5"/>
</g>
<!-- LearningSpace -->
<g id="node5" class="node">
<title>LearningSpace</title>
<polygon fill="none" stroke="black" points="294,-813.5 294,-994.5 501,-994.5 501,-813.5 294,-813.5"/>
<text text-anchor="middle" x="397.5" y="-979.3" font-family="Times,serif" font-size="14.00">LearningSpace</text>
<polyline fill="none" stroke="black" points="294,-971.5 501,-971.5 "/>
<text text-anchor="start" x="302" y="-956.3" font-family="Times,serif" font-size="14.00">spaceId</text>
<text text-anchor="start" x="302" y="-941.3" font-family="Times,serif" font-size="14.00">spaceUuid</text>
<text text-anchor="start" x="302" y="-926.3" font-family="Times,serif" font-size="14.00">spaceName</text>
<text text-anchor="start" x="302" y="-911.3" font-family="Times,serif" font-size="14.00">spaceDescription</text>
<text text-anchor="start" x="302" y="-896.3" font-family="Times,serif" font-size="14.00">spaceGoals</text>
<text text-anchor="start" x="302" y="-881.3" font-family="Times,serif" font-size="14.00">spaceSlotContents</text>
<text text-anchor="start" x="302" y="-866.3" font-family="Times,serif" font-size="14.00">requiredPointsToComplete</text>
<text text-anchor="start" x="302" y="-851.3" font-family="Times,serif" font-size="14.00">requiredSpacesToEnter</text>
<text text-anchor="start" x="302" y="-836.3" font-family="Times,serif" font-size="14.00">spaceTemplate</text>
<text text-anchor="start" x="302" y="-821.3" font-family="Times,serif" font-size="14.00">spaceTemplateStyle</text>
</g>
<!-- LearningWorld&#45;&gt;LearningSpace -->
<g id="edge3" class="edge">
<title>LearningWorld&#45;&gt;LearningSpace</title>
<path fill="none" stroke="black" d="M333.07,-1031.39C337.52,-1022.66 342.27,-1013.35 347.09,-1003.89"/>
<polygon fill="black" stroke="black" points="350.3,-1005.29 351.73,-994.79 344.06,-1002.11 350.3,-1005.29"/>
</g>
<!-- LearningElement -->
<g id="node8" class="node">
<title>LearningElement</title>
<polygon fill="none" stroke="black" points="519,-821 519,-987 676,-987 676,-821 519,-821"/>
<text text-anchor="middle" x="597.5" y="-971.8" font-family="Times,serif" font-size="14.00">LearningElement</text>
<polyline fill="none" stroke="black" points="519,-964 676,-964 "/>
<text text-anchor="start" x="527" y="-948.8" font-family="Times,serif" font-size="14.00">elementId</text>
<text text-anchor="start" x="527" y="-933.8" font-family="Times,serif" font-size="14.00">elementUuid</text>
<text text-anchor="start" x="527" y="-918.8" font-family="Times,serif" font-size="14.00">elementName</text>
<text text-anchor="start" x="527" y="-903.8" font-family="Times,serif" font-size="14.00">elementDescription</text>
<text text-anchor="start" x="527" y="-888.8" font-family="Times,serif" font-size="14.00">elementGoals</text>
<text text-anchor="start" x="527" y="-873.8" font-family="Times,serif" font-size="14.00">elementCategory</text>
<text text-anchor="start" x="527" y="-858.8" font-family="Times,serif" font-size="14.00">elementFileType</text>
<text text-anchor="start" x="527" y="-843.8" font-family="Times,serif" font-size="14.00">elementMaxScore</text>
<text text-anchor="start" x="527" y="-828.8" font-family="Times,serif" font-size="14.00">elementModel</text>
</g>
<!-- LearningWorld&#45;&gt;LearningElement -->
<g id="edge4" class="edge">
<title>LearningWorld&#45;&gt;LearningElement</title>
<path fill="none" stroke="black" d="M376.51,-1035.44C379.51,-1033.87 382.51,-1032.38 385.5,-1031 437.97,-1006.72 460.95,-1024.79 510.5,-995 511.63,-994.32 512.75,-993.63 513.86,-992.92"/>
<polygon fill="black" stroke="black" points="516.03,-995.67 522.32,-987.14 512.09,-989.89 516.03,-995.67"/>
</g>
<!-- SimpleSpaceStory -->
<g id="node6" class="node">
<title>SimpleSpaceStory</title>
<polygon fill="none" stroke="black" points="323.5,-670 323.5,-717 471.5,-717 471.5,-670 323.5,-670"/>
<text text-anchor="middle" x="397.5" y="-701.8" font-family="Times,serif" font-size="14.00">SimpleSpaceStory</text>
<polyline fill="none" stroke="black" points="323.5,-694 471.5,-694 "/>
</g>
<!-- LearningSpace&#45;&gt;SimpleSpaceStory -->
<g id="edge5" class="edge">
<title>LearningSpace&#45;&gt;SimpleSpaceStory</title>
<path fill="none" stroke="black" d="M397.5,-813.37C397.5,-782.88 397.5,-750.68 397.5,-727.5"/>
<polygon fill="black" stroke="black" points="401,-727.21 397.5,-717.21 394,-727.21 401,-727.21"/>
</g>
<!-- SimpleSpaceStoryElement -->
<g id="node7" class="node">
<title>SimpleSpaceStoryElement</title>
<polygon fill="none" stroke="black" points="293.5,-482.5 293.5,-573.5 501.5,-573.5 501.5,-482.5 293.5,-482.5"/>
<text text-anchor="middle" x="397.5" y="-558.3" font-family="Times,serif" font-size="14.00">SimpleSpaceStoryElement</text>
<polyline fill="none" stroke="black" points="293.5,-550.5 501.5,-550.5 "/>
<text text-anchor="start" x="301.5" y="-535.3" font-family="Times,serif" font-size="14.00">storyTexts</text>
<text text-anchor="start" x="301.5" y="-520.3" font-family="Times,serif" font-size="14.00">elementModel</text>
<text text-anchor="start" x="301.5" y="-505.3" font-family="Times,serif" font-size="14.00">modelFacialExpression</text>
<text text-anchor="start" x="301.5" y="-490.3" font-family="Times,serif" font-size="14.00">storyNpcName</text>
</g>
<!-- SimpleSpaceStory&#45;&gt;SimpleSpaceStoryElement -->
<g id="edge6" class="edge">
<title>SimpleSpaceStory&#45;&gt;SimpleSpaceStoryElement</title>
<path fill="none" stroke="black" d="M397.5,-669.77C397.5,-647.63 397.5,-613.14 397.5,-583.84"/>
<polygon fill="black" stroke="black" points="401,-583.72 397.5,-573.72 394,-583.72 401,-583.72"/>
</g>
<!-- AdaptivityElement -->
<g id="node9" class="node">
<title>AdaptivityElement</title>
<polygon fill="none" stroke="black" points="519,-610.5 519,-776.5 676,-776.5 676,-610.5 519,-610.5"/>
<text text-anchor="middle" x="597.5" y="-761.3" font-family="Times,serif" font-size="14.00">AdaptivityElement</text>
<polyline fill="none" stroke="black" points="519,-753.5 676,-753.5 "/>
<text text-anchor="start" x="527" y="-738.3" font-family="Times,serif" font-size="14.00">elementId</text>
<text text-anchor="start" x="527" y="-723.3" font-family="Times,serif" font-size="14.00">elementUuid</text>
<text text-anchor="start" x="527" y="-708.3" font-family="Times,serif" font-size="14.00">elementName</text>
<text text-anchor="start" x="527" y="-693.3" font-family="Times,serif" font-size="14.00">elementDescription</text>
<text text-anchor="start" x="527" y="-678.3" font-family="Times,serif" font-size="14.00">elementGoals</text>
<text text-anchor="start" x="527" y="-663.3" font-family="Times,serif" font-size="14.00">elementCategory</text>
<text text-anchor="start" x="527" y="-648.3" font-family="Times,serif" font-size="14.00">elementFileType</text>
<text text-anchor="start" x="527" y="-633.3" font-family="Times,serif" font-size="14.00">elementMaxScore</text>
<text text-anchor="start" x="527" y="-618.3" font-family="Times,serif" font-size="14.00">elementModel</text>
</g>
<!-- LearningElement&#45;&gt;AdaptivityElement -->
<g id="edge15" class="edge">
<title>LearningElement&#45;&gt;AdaptivityElement</title>
<path fill="none" stroke="black" d="M597.5,-820.89C597.5,-809.73 597.5,-798.2 597.5,-786.87"/>
<polygon fill="black" stroke="black" points="601,-786.53 597.5,-776.53 594,-786.53 601,-786.53"/>
</g>
<!-- adaptivityContent -->
<g id="node10" class="node">
<title>adaptivityContent</title>
<polygon fill="none" stroke="black" points="524.5,-505 524.5,-551 670.5,-551 670.5,-505 524.5,-505"/>
<text text-anchor="middle" x="597.5" y="-535.8" font-family="Times,serif" font-size="14.00">adaptivityContent</text>
<polyline fill="none" stroke="black" points="524.5,-528 670.5,-528 "/>
<text text-anchor="start" x="532.5" y="-512.8" font-family="Times,serif" font-size="14.00">introText</text>
</g>
<!-- AdaptivityElement&#45;&gt;adaptivityContent -->
<g id="edge7" class="edge">
<title>AdaptivityElement&#45;&gt;adaptivityContent</title>
<path fill="none" stroke="black" d="M597.5,-610.27C597.5,-592.91 597.5,-575.57 597.5,-561.4"/>
<polygon fill="black" stroke="black" points="601,-561.23 597.5,-551.23 594,-561.23 601,-561.23"/>
</g>
<!-- adaptivityTask -->
<g id="node11" class="node">
<title>adaptivityTask</title>
<polygon fill="none" stroke="black" points="490,-339.5 490,-445.5 705,-445.5 705,-339.5 490,-339.5"/>
<text text-anchor="middle" x="597.5" y="-430.3" font-family="Times,serif" font-size="14.00">adaptivityTask</text>
<polyline fill="none" stroke="black" points="490,-422.5 705,-422.5 "/>
<text text-anchor="start" x="498" y="-407.3" font-family="Times,serif" font-size="14.00">taskId</text>
<text text-anchor="start" x="498" y="-392.3" font-family="Times,serif" font-size="14.00">taskUuid</text>
<text text-anchor="start" x="498" y="-377.3" font-family="Times,serif" font-size="14.00">taskName</text>
<text text-anchor="start" x="498" y="-362.3" font-family="Times,serif" font-size="14.00">optional</text>
<text text-anchor="start" x="498" y="-347.3" font-family="Times,serif" font-size="14.00">minimumRequiredDifficulty</text>
</g>
<!-- adaptivityContent&#45;&gt;adaptivityTask -->
<g id="edge8" class="edge">
<title>adaptivityContent&#45;&gt;adaptivityTask</title>
<path fill="none" stroke="black" d="M597.5,-504.96C597.5,-491.46 597.5,-473.45 597.5,-455.85"/>
<polygon fill="black" stroke="black" points="601,-455.57 597.5,-445.57 594,-455.57 601,-455.57"/>
</g>
<!-- adaptivityQuestion -->
<g id="node12" class="node">
<title>adaptivityQuestion</title>
<polygon fill="none" stroke="black" points="521.5,-196.5 521.5,-302.5 673.5,-302.5 673.5,-196.5 521.5,-196.5"/>
<text text-anchor="middle" x="597.5" y="-287.3" font-family="Times,serif" font-size="14.00">adaptivityQuestion</text>
<polyline fill="none" stroke="black" points="521.5,-279.5 673.5,-279.5 "/>
<text text-anchor="start" x="529.5" y="-264.3" font-family="Times,serif" font-size="14.00">questionType</text>
<text text-anchor="start" x="529.5" y="-249.3" font-family="Times,serif" font-size="14.00">questionId</text>
<text text-anchor="start" x="529.5" y="-234.3" font-family="Times,serif" font-size="14.00">questionUuid</text>
<text text-anchor="start" x="529.5" y="-219.3" font-family="Times,serif" font-size="14.00">questionDifficulty</text>
<text text-anchor="start" x="529.5" y="-204.3" font-family="Times,serif" font-size="14.00">questionText</text>
</g>
<!-- adaptivityTask&#45;&gt;adaptivityQuestion -->
<g id="edge9" class="edge">
<title>adaptivityTask&#45;&gt;adaptivityQuestion</title>
<path fill="none" stroke="black" d="M597.5,-339.4C597.5,-330.83 597.5,-321.87 597.5,-313.07"/>
<polygon fill="black" stroke="black" points="601,-312.86 597.5,-302.86 594,-312.86 601,-312.86"/>
</g>
<!-- correctnessTrigger -->
<g id="node13" class="node">
<title>correctnessTrigger</title>
<polygon fill="none" stroke="black" points="422,-98.5 422,-159.5 575,-159.5 575,-98.5 422,-98.5"/>
<text text-anchor="middle" x="498.5" y="-144.3" font-family="Times,serif" font-size="14.00">correctnessTrigger</text>
<polyline fill="none" stroke="black" points="422,-136.5 575,-136.5 "/>
<text text-anchor="start" x="430" y="-121.3" font-family="Times,serif" font-size="14.00">triggerId</text>
<text text-anchor="start" x="430" y="-106.3" font-family="Times,serif" font-size="14.00">triggerCondition</text>
</g>
<!-- adaptivityQuestion&#45;&gt;correctnessTrigger -->
<g id="edge10" class="edge">
<title>adaptivityQuestion&#45;&gt;correctnessTrigger</title>
<path fill="none" stroke="black" d="M553.79,-196.18C545.7,-186.49 537.39,-176.56 529.76,-167.42"/>
<polygon fill="black" stroke="black" points="532.35,-165.06 523.25,-159.63 526.98,-169.55 532.35,-165.06"/>
</g>
<!-- AdaptivityQuestionAnswer -->
<g id="node17" class="node">
<title>AdaptivityQuestionAnswer</title>
<polygon fill="none" stroke="black" points="593,-106 593,-152 800,-152 800,-106 593,-106"/>
<text text-anchor="middle" x="696.5" y="-136.8" font-family="Times,serif" font-size="14.00">AdaptivityQuestionAnswer</text>
<polyline fill="none" stroke="black" points="593,-129 800,-129 "/>
<text text-anchor="start" x="601" y="-113.8" font-family="Times,serif" font-size="14.00">answerText</text>
</g>
<!-- adaptivityQuestion&#45;&gt;AdaptivityQuestionAnswer -->
<g id="edge14" class="edge">
<title>adaptivityQuestion&#45;&gt;AdaptivityQuestionAnswer</title>
<path fill="none" stroke="black" d="M641.21,-196.18C651.63,-183.71 662.4,-170.82 671.63,-159.77"/>
<polygon fill="black" stroke="black" points="674.33,-161.99 678.06,-152.08 668.96,-157.51 674.33,-161.99"/>
</g>
<!-- CommentAction -->
<g id="node14" class="node">
<title>CommentAction</title>
<polygon fill="none" stroke="black" points="246,-8 246,-54 377,-54 377,-8 246,-8"/>
<text text-anchor="middle" x="311.5" y="-38.8" font-family="Times,serif" font-size="14.00">CommentAction</text>
<polyline fill="none" stroke="black" points="246,-31 377,-31 "/>
<text text-anchor="start" x="254" y="-15.8" font-family="Times,serif" font-size="14.00">commentText</text>
</g>
<!-- correctnessTrigger&#45;&gt;CommentAction -->
<g id="edge11" class="edge">
<title>correctnessTrigger&#45;&gt;CommentAction</title>
<path fill="none" stroke="black" d="M440.87,-98.41C416.13,-85.71 387.44,-70.98 363.37,-58.63"/>
<polygon fill="black" stroke="black" points="364.89,-55.47 354.39,-54.02 361.69,-61.7 364.89,-55.47"/>
</g>
<!-- AdaptivityReferenceAction -->
<g id="node15" class="node">
<title>AdaptivityReferenceAction</title>
<polygon fill="none" stroke="black" points="395,-0.5 395,-61.5 602,-61.5 602,-0.5 395,-0.5"/>
<text text-anchor="middle" x="498.5" y="-46.3" font-family="Times,serif" font-size="14.00">AdaptivityReferenceAction</text>
<polyline fill="none" stroke="black" points="395,-38.5 602,-38.5 "/>
<text text-anchor="start" x="403" y="-23.3" font-family="Times,serif" font-size="14.00">ElementId</text>
<text text-anchor="start" x="403" y="-8.3" font-family="Times,serif" font-size="14.00">hintText</text>
</g>
<!-- correctnessTrigger&#45;&gt;AdaptivityReferenceAction -->
<g id="edge12" class="edge">
<title>correctnessTrigger&#45;&gt;AdaptivityReferenceAction</title>
<path fill="none" stroke="black" d="M498.5,-98.41C498.5,-90.02 498.5,-80.74 498.5,-71.84"/>
<polygon fill="black" stroke="black" points="502,-71.65 498.5,-61.65 495,-71.65 502,-71.65"/>
</g>
<!-- AdaptivityContentReferenceAction -->
<g id="node16" class="node">
<title>AdaptivityContentReferenceAction</title>
<polygon fill="none" stroke="black" points="620.5,-0.5 620.5,-61.5 884.5,-61.5 884.5,-0.5 620.5,-0.5"/>
<text text-anchor="middle" x="752.5" y="-46.3" font-family="Times,serif" font-size="14.00">AdaptivityContentReferenceAction</text>
<polyline fill="none" stroke="black" points="620.5,-38.5 884.5,-38.5 "/>
<text text-anchor="start" x="628.5" y="-23.3" font-family="Times,serif" font-size="14.00">ElementId</text>
<text text-anchor="start" x="628.5" y="-8.3" font-family="Times,serif" font-size="14.00">hintText</text>
</g>
<!-- correctnessTrigger&#45;&gt;AdaptivityContentReferenceAction -->
<g id="edge13" class="edge">
<title>correctnessTrigger&#45;&gt;AdaptivityContentReferenceAction</title>
<path fill="none" stroke="black" d="M575.05,-99.07C603.39,-88.36 635.73,-76.13 664.97,-65.08"/>
<polygon fill="black" stroke="black" points="666.23,-68.35 674.35,-61.54 663.76,-61.8 666.23,-68.35"/>
</g>
<!-- BaseLearningElement -->
<g id="node18" class="node">
<title>BaseLearningElement</title>
<polygon fill="none" stroke="black" points="395,-1031.5 395,-1137.5 570,-1137.5 570,-1031.5 395,-1031.5"/>
<text text-anchor="middle" x="482.5" y="-1122.3" font-family="Times,serif" font-size="14.00">BaseLearningElement</text>
<polyline fill="none" stroke="black" points="395,-1114.5 570,-1114.5 "/>
<text text-anchor="start" x="403" y="-1099.3" font-family="Times,serif" font-size="14.00">elementId</text>
<text text-anchor="start" x="403" y="-1084.3" font-family="Times,serif" font-size="14.00">elementUuid</text>
<text text-anchor="start" x="403" y="-1069.3" font-family="Times,serif" font-size="14.00">elementName</text>
<text text-anchor="start" x="403" y="-1054.3" font-family="Times,serif" font-size="14.00">elementCategory</text>
<text text-anchor="start" x="403" y="-1039.3" font-family="Times,serif" font-size="14.00">elementFileType</text>
</g>
</g>
</svg>
